<svg width="135" height="40" viewBox="0 0 135 40" fill="none" xmlns="http://www.w3.org/2000/svg">
<path d="M130 0H5C2.23858 0 0 2.23858 0 5V35C0 37.7614 2.23858 40 5 40H130C132.761 40 135 37.7614 135 35V5C135 2.23858 132.761 0 130 0Z" fill="black"/>
<path d="M30.1291 19.7842C30.1001 16.5612 32.7681 14.9932 32.8901 14.9202C31.3791 12.7172 29.0371 12.4162 28.2141 12.3922C26.2471 12.1852 24.3391 13.5692 23.3371 13.5692C22.3151 13.5692 20.7721 12.4122 19.1091 12.4462C16.9691 12.4792 14.9671 13.7182 13.8691 15.6422C11.6031 19.5652 13.2931 25.3302 15.4641 28.5012C16.5501 30.0542 17.8191 31.7882 19.4801 31.7272C21.1051 31.6602 21.7121 30.6912 23.6731 30.6912C25.6161 30.6912 26.1861 31.7272 27.8801 31.6882C29.6241 31.6602 30.7221 30.1282 31.7701 28.5612C33.0251 26.7812 33.5291 25.0282 33.5491 24.9382C33.5081 24.9242 30.1621 23.6472 30.1291 19.7842Z" fill="white"/>
<path d="M26.929 10.3058C27.803 9.2128 28.401 7.7258 28.235 6.2168C26.97 6.2728 25.388 7.0918 24.477 8.1608C23.671 9.1028 22.951 10.6468 23.137 12.0988C24.558 12.2048 26.017 11.3818 26.929 10.3058Z" fill="white"/>
<path d="M53.6452 31.5033H51.3742L50.1302 27.5943H45.8062L44.6212 31.5033H42.4102L46.6942 18.1953H49.3402L53.6452 31.5033ZM49.7552 25.9543L48.6302 22.4793C48.5112 22.1243 48.2882 21.2883 47.9592 19.9723H47.9192C47.7882 20.5383 47.5772 21.3743 47.2872 22.4793L46.1822 25.9543H49.7552Z" fill="white"/>
<path d="M64.6629 26.5879C64.6629 28.2199 64.2219 29.5099 63.3399 30.4569C62.5499 31.2999 61.5689 31.7209 60.3979 31.7209C59.1339 31.7209 58.2259 31.2669 57.6729 30.3589H57.6329V35.4139H55.5009V25.0669C55.5009 24.0409 55.4739 22.9879 55.4219 21.9079H57.2969L57.4159 23.4289H57.4559C58.1669 22.2829 59.2459 21.7109 60.6939 21.7109C61.8259 21.7109 62.7709 22.1579 63.5269 23.0529C64.2849 23.9489 64.6629 25.1269 64.6629 26.5879ZM62.4909 26.6659C62.4909 25.7319 62.2809 24.9619 61.8589 24.3559C61.3979 23.7239 60.7789 23.4079 60.0029 23.4079C59.4769 23.4079 58.9989 23.5839 58.5719 23.9309C58.1439 24.2809 57.8639 24.7379 57.7329 25.3039C57.6669 25.5679 57.6339 25.7839 57.6339 25.9539V27.5539C57.6339 28.2519 57.8479 28.8409 58.2759 29.3219C58.7039 29.8029 59.2599 30.0429 59.9439 30.0429C60.7469 30.0429 61.3719 29.7329 61.8189 29.1149C62.2669 28.4959 62.4909 27.6799 62.4909 26.6659Z" fill="white"/>
<path d="M75.699 26.5879C75.699 28.2199 75.258 29.5099 74.375 30.4569C73.586 31.2999 72.605 31.7209 71.434 31.7209C70.17 31.7209 69.262 31.2669 68.71 30.3589H68.67V35.4139H66.538V25.0669C66.538 24.0409 66.511 22.9879 66.459 21.9079H68.334L68.453 23.4289H68.493C69.203 22.2829 70.282 21.7109 71.731 21.7109C72.862 21.7109 73.807 22.1579 74.565 23.0529C75.32 23.9489 75.699 25.1269 75.699 26.5879ZM73.527 26.6659C73.527 25.7319 73.316 24.9619 72.894 24.3559C72.433 23.7239 71.816 23.4079 71.039 23.4079C70.512 23.4079 70.035 23.5839 69.607 23.9309C69.179 24.2809 68.9 24.7379 68.769 25.3039C68.704 25.5679 68.67 25.7839 68.67 25.9539V27.5539C68.67 28.2519 68.884 28.8409 69.31 29.3219C69.738 29.8019 70.294 30.0429 70.98 30.0429C71.783 30.0429 72.408 29.7329 72.855 29.1149C73.303 28.4959 73.527 27.6799 73.527 26.6659Z" fill="white"/>
<path d="M88.0392 27.772C88.0392 28.904 87.6462 29.825 86.8572 30.536C85.9902 31.313 84.7832 31.701 83.2322 31.701C81.8002 31.701 80.6522 31.425 79.7832 30.872L80.2772 29.095C81.2132 29.661 82.2402 29.945 83.3592 29.945C84.1622 29.945 84.7872 29.763 85.2362 29.401C85.6832 29.039 85.9062 28.553 85.9062 27.947C85.9062 27.407 85.7222 26.952 85.3532 26.583C84.9862 26.214 84.3732 25.871 83.5172 25.554C81.1872 24.685 80.0232 23.412 80.0232 21.738C80.0232 20.644 80.4312 19.747 81.2482 19.049C82.0622 18.35 83.1482 18.001 84.5062 18.001C85.7172 18.001 86.7232 18.212 87.5262 18.633L86.9932 20.371C86.2432 19.963 85.3952 19.759 84.4462 19.759C83.6962 19.759 83.1102 19.944 82.6902 20.312C82.3352 20.641 82.1572 21.042 82.1572 21.517C82.1572 22.043 82.3602 22.478 82.7682 22.82C83.1232 23.136 83.7682 23.478 84.7042 23.847C85.8492 24.308 86.6902 24.847 87.2312 25.465C87.7702 26.081 88.0392 26.852 88.0392 27.772Z" fill="white"/>
<path d="M95.0881 23.5086H92.7381V28.1676C92.7381 29.3526 93.1521 29.9446 93.9821 29.9446C94.3631 29.9446 94.6791 29.9116 94.9291 29.8456L94.9881 31.4646C94.5681 31.6216 94.0151 31.7006 93.3301 31.7006C92.4881 31.7006 91.8301 31.4436 91.3551 30.9306C90.8821 30.4166 90.6441 29.5546 90.6441 28.3436V23.5066H89.2441V21.9066H90.6441V20.1496L92.7381 19.5176V21.9066H95.0881V23.5086Z" fill="white"/>
<path d="M105.692 26.6269C105.692 28.1019 105.27 29.3129 104.428 30.2599C103.545 31.2349 102.373 31.7209 100.912 31.7209C99.504 31.7209 98.383 31.2539 97.547 30.3199C96.711 29.3859 96.293 28.2069 96.293 26.7859C96.293 25.2989 96.723 24.0809 97.586 23.1339C98.447 22.1859 99.609 21.7119 101.07 21.7119C102.478 21.7119 103.611 22.1789 104.466 23.1139C105.284 24.0209 105.692 25.1919 105.692 26.6269ZM103.48 26.6959C103.48 25.8109 103.291 25.0519 102.908 24.4189C102.461 23.6529 101.822 23.2709 100.994 23.2709C100.137 23.2709 99.486 23.6539 99.039 24.4189C98.656 25.0529 98.467 25.8239 98.467 26.7359C98.467 27.6209 98.656 28.3799 99.039 29.0119C99.5 29.7779 100.144 30.1599 100.975 30.1599C101.789 30.1599 102.428 29.7699 102.889 28.9919C103.282 28.3469 103.48 27.5799 103.48 26.6959Z" fill="white"/>
<path d="M112.62 23.7829C112.409 23.7439 112.184 23.7239 111.948 23.7239C111.198 23.7239 110.618 24.0069 110.21 24.5739C109.855 25.0739 109.677 25.7059 109.677 26.4689V31.5039H107.546L107.566 24.9299C107.566 23.8239 107.539 22.8169 107.486 21.9089H109.343L109.421 23.7449H109.48C109.705 23.1139 110.06 22.6059 110.546 22.2249C111.021 21.8819 111.534 21.7109 112.087 21.7109C112.284 21.7109 112.462 21.7249 112.62 21.7499V23.7829Z" fill="white"/>
<path d="M122.157 26.2524C122.157 26.6344 122.132 26.9564 122.079 27.2194H115.683C115.708 28.1674 116.017 28.8924 116.611 29.3924C117.15 29.8394 117.847 30.0634 118.703 30.0634C119.65 30.0634 120.514 29.9124 121.291 29.6094L121.625 31.0894C120.717 31.4854 119.645 31.6824 118.408 31.6824C116.92 31.6824 115.752 31.2444 114.902 30.3694C114.054 29.4944 113.629 28.3194 113.629 26.8454C113.629 25.3984 114.024 24.1934 114.815 23.2324C115.643 22.2064 116.762 21.6934 118.17 21.6934C119.553 21.6934 120.6 22.2064 121.311 23.2324C121.874 24.0474 122.157 25.0554 122.157 26.2524ZM120.124 25.6994C120.138 25.0674 119.999 24.5214 119.71 24.0604C119.341 23.4674 118.774 23.1714 118.011 23.1714C117.314 23.1714 116.747 23.4604 116.314 24.0404C115.959 24.5014 115.748 25.0544 115.683 25.6984H120.124V25.6994Z" fill="white"/>
<path d="M43.424 7.27309C43.651 7.13709 43.907 7.02309 44.195 6.92909C44.482 6.83509 44.82 6.78809 45.209 6.78809C45.836 6.78809 46.33 6.93709 46.692 7.23409C47.054 7.53109 47.235 7.93209 47.235 8.43709C47.235 8.83809 47.114 9.17409 46.872 9.44609C46.63 9.71809 46.32 9.89909 45.945 9.98909V10.0181C46.152 10.0511 46.348 10.1071 46.532 10.1881C46.717 10.2691 46.879 10.3771 47.017 10.5131C47.156 10.6491 47.266 10.8071 47.347 10.9891C47.427 11.1701 47.468 11.3701 47.468 11.5911C47.468 11.9531 47.395 12.2571 47.249 12.5031C47.103 12.7491 46.913 12.9491 46.677 13.1051C46.442 13.2601 46.178 13.3721 45.887 13.4391C45.596 13.5061 45.305 13.5411 45.014 13.5411C44.703 13.5411 44.396 13.5081 44.092 13.4441C43.788 13.3801 43.507 13.2731 43.248 13.1241L43.51 12.3191C43.678 12.4031 43.895 12.4841 44.16 12.5621C44.425 12.6401 44.693 12.6781 44.965 12.6781C45.411 12.6781 45.756 12.5781 45.998 12.3781C46.24 12.1771 46.362 11.9091 46.362 11.5731C46.362 11.3461 46.313 11.1611 46.216 11.0151C46.118 10.8691 45.992 10.7551 45.837 10.6701C45.682 10.5861 45.509 10.5281 45.318 10.4961C45.127 10.4641 44.938 10.4471 44.751 10.4471H44.314V9.65009H44.751C44.951 9.65009 45.137 9.62509 45.309 9.57209C45.48 9.52109 45.629 9.44809 45.755 9.35409C45.881 9.26009 45.98 9.14809 46.051 9.01909C46.121 8.89009 46.157 8.74409 46.157 8.58209C46.157 8.29109 46.053 8.06309 45.846 7.89809C45.639 7.73309 45.361 7.65009 45.012 7.65009C44.773 7.65009 44.533 7.68909 44.294 7.76609C44.055 7.84409 43.841 7.92809 43.653 8.01809L43.424 7.27309Z" fill="white"/>
<path d="M51.7542 13.433L51.6772 12.89H51.6482C51.3322 13.323 50.8732 13.54 50.2712 13.54C50.0572 13.54 49.8642 13.504 49.6892 13.433C49.5142 13.362 49.3622 13.265 49.2332 13.142C49.1032 13.019 49.0042 12.874 48.9322 12.705C48.8612 12.537 48.8262 12.352 48.8262 12.152C48.8262 11.564 49.0652 11.122 49.5442 10.828C50.0232 10.534 50.7012 10.387 51.5812 10.387V10.3C51.5812 9.67905 51.2552 9.36905 50.6032 9.36905C50.1382 9.36905 49.7282 9.48605 49.3742 9.71805L49.1612 9.03005C49.5942 8.75905 50.1332 8.62305 50.7782 8.62305C52.0112 8.62305 52.6282 9.27305 52.6282 10.573V12.309C52.6282 12.794 52.6512 13.169 52.6962 13.434H51.7542V13.433ZM51.6092 11.086C51.0242 11.086 50.5882 11.16 50.3022 11.309C50.0162 11.458 49.8732 11.701 49.8732 12.037C49.8732 12.283 49.9402 12.467 50.0752 12.59C50.2102 12.713 50.3812 12.774 50.5872 12.774C50.7222 12.774 50.8502 12.75 50.9732 12.701C51.0952 12.653 51.2022 12.586 51.2952 12.502C51.3892 12.418 51.4642 12.316 51.5232 12.196C51.5812 12.076 51.6092 11.949 51.6092 11.813V11.086Z" fill="white"/>
<path d="M57.6828 8.71875V9.58175H55.7228V13.4327H54.6758V8.71875H57.6828Z" fill="white"/>
<path d="M63.6767 11.0181C63.6767 11.3931 63.6247 11.7361 63.5217 12.0461C63.4177 12.3571 63.2747 12.6221 63.0897 12.8411C62.9057 13.0611 62.6857 13.2331 62.4307 13.3551C62.1747 13.4781 61.8927 13.5401 61.5817 13.5401C60.9607 13.5401 60.5147 13.3171 60.2427 12.8711H60.2227V15.3541H59.1747V10.2711C59.1747 10.0191 59.1717 9.76509 59.1647 9.50909C59.1587 9.25409 59.1487 8.99009 59.1367 8.71809H60.0577L60.1167 9.46509H60.1367C60.4857 8.90309 61.0157 8.62109 61.7277 8.62109C62.0047 8.62109 62.2627 8.67909 62.4987 8.79509C62.7347 8.91209 62.9397 9.07509 63.1147 9.28509C63.2897 9.49509 63.4267 9.74709 63.5267 10.0421C63.6267 10.3371 63.6767 10.6621 63.6767 11.0181ZM62.6107 11.0571C62.6107 10.8241 62.5827 10.6091 62.5277 10.4121C62.4727 10.2151 62.3917 10.0471 62.2857 9.90809C62.1797 9.76909 62.0497 9.65909 61.8977 9.57809C61.7457 9.49709 61.5757 9.45709 61.3877 9.45709C61.2397 9.45709 61.0937 9.49009 60.9507 9.55409C60.8077 9.61809 60.6837 9.70609 60.5777 9.81609C60.4707 9.92609 60.3857 10.0591 60.3207 10.2141C60.2557 10.3691 60.2227 10.5341 60.2227 10.7091V11.4951C60.2227 11.6691 60.2497 11.8311 60.3057 11.9801C60.3607 12.1291 60.4377 12.2581 60.5377 12.3681C60.6377 12.4781 60.7577 12.5641 60.8967 12.6251C61.0357 12.6871 61.1887 12.7171 61.3567 12.7171C61.7517 12.7171 62.0587 12.5671 62.2787 12.2661C62.4987 11.9651 62.6107 11.5611 62.6107 11.0571Z" fill="white"/>
<path d="M69.3052 8.71875L68.1112 11.9878C67.8272 12.7638 67.5502 13.3988 67.2822 13.8938C67.0132 14.3888 66.7572 14.7487 66.5112 14.9757C66.1492 15.2987 65.7642 15.4968 65.3562 15.5668L65.1042 14.6848C65.3752 14.6138 65.6342 14.4747 65.8802 14.2677C66.1252 14.0608 66.3222 13.8027 66.4722 13.4917C66.5242 13.3887 66.5492 13.3178 66.5492 13.2788C66.5492 13.2398 66.5292 13.1658 66.4912 13.0557L64.7832 8.71975H65.9372L66.8302 11.3488C66.8762 11.4718 66.9212 11.6107 66.9662 11.7657C67.0122 11.9207 67.0602 12.0927 67.1122 12.2797H67.1322C67.1642 12.1757 67.2002 12.0458 67.2382 11.8868C67.2772 11.7288 67.3292 11.5457 67.3932 11.3387L68.1892 8.71975H69.3052V8.71875Z" fill="white"/>
<path d="M71.1184 10.6781H71.6024C71.9574 10.6781 72.2334 10.6141 72.4264 10.4841C72.6194 10.3541 72.7174 10.1961 72.7174 10.0081C72.7174 9.81407 72.6354 9.65907 72.4694 9.54307C72.3054 9.42707 72.0764 9.36807 71.7854 9.36807C71.5974 9.36807 71.4084 9.39907 71.2194 9.46007C71.0284 9.52207 70.8524 9.59807 70.6904 9.68807L70.4194 9.01007C70.6904 8.86207 70.9604 8.76007 71.2304 8.70507C71.4984 8.65007 71.7674 8.62207 72.0394 8.62207C72.2544 8.62207 72.4694 8.64307 72.6854 8.68507C72.9004 8.72707 73.0934 8.79807 73.2614 8.89807C73.4294 8.99807 73.5684 9.12907 73.6734 9.29107C73.7804 9.45307 73.8334 9.65307 73.8334 9.89307C73.8334 10.0421 73.8044 10.1731 73.7454 10.2861C73.6884 10.3991 73.6104 10.4991 73.5134 10.5861C73.4174 10.6731 73.3084 10.7451 73.1894 10.7991C73.0704 10.8541 72.9474 10.8951 72.8264 10.9211V10.9501C72.9804 10.9701 73.1314 11.0091 73.2774 11.0671C73.4224 11.1251 73.5524 11.2011 73.6704 11.2951C73.7854 11.3891 73.8794 11.5021 73.9514 11.6341C74.0214 11.7671 74.0564 11.9171 74.0564 12.0851C74.0564 12.3631 73.9904 12.5961 73.8534 12.7831C73.7184 12.9711 73.5444 13.1191 73.3334 13.2291C73.1244 13.3391 72.8924 13.4181 72.6404 13.4671C72.3884 13.5151 72.1424 13.5401 71.9044 13.5401C71.6134 13.5401 71.3244 13.5091 71.0414 13.4481C70.7564 13.3861 70.5004 13.2911 70.2734 13.1621L70.5464 12.4731C70.7144 12.5641 70.9054 12.6401 71.1224 12.7011C71.3394 12.7621 71.5604 12.7931 71.7864 12.7931C72.1414 12.7931 72.4154 12.7241 72.6064 12.5851C72.7954 12.4461 72.8914 12.2731 72.8914 12.0661C72.8914 11.9301 72.8604 11.8161 72.7954 11.7221C72.7304 11.6281 72.6394 11.5521 72.5244 11.4941C72.4074 11.4361 72.2724 11.3951 72.1164 11.3731C71.9624 11.3501 71.7924 11.3391 71.6124 11.3391H71.1184V10.6781Z" fill="white"/>
<path d="M76.7158 8.7188V10.3868C76.7158 10.7688 76.7098 11.1118 76.6958 11.4148C76.6818 11.7188 76.6668 12.0388 76.6468 12.3748L76.6668 12.3938C76.7898 12.1478 76.9108 11.9078 77.0298 11.6708C77.1508 11.4348 77.2718 11.1938 77.3948 10.9478L78.5588 8.7168H79.9158V13.4308H78.9258V11.7628C78.9258 11.4138 78.9358 11.0648 78.9508 10.7158C78.9668 10.3658 78.9838 10.0138 79.0038 9.6578H78.9548C78.8458 9.9488 78.7358 10.2008 78.6248 10.4148C78.5158 10.6278 78.4058 10.8478 78.2968 11.0748C78.0958 11.4628 77.8968 11.8508 77.6988 12.2388C77.5018 12.6268 77.2928 13.0248 77.0738 13.4318H75.7168V8.7188H76.7158Z" fill="white"/>
<path d="M85.4457 8.71875V9.58175H84.0107V13.4327H82.9807V9.58175H81.5547V8.71875H85.4457Z" fill="white"/>
<path d="M90.7896 10.8533C90.7896 10.9433 90.7856 11.0293 90.7796 11.1103C90.7736 11.1913 90.7636 11.2643 90.7506 11.3283H87.6076C87.6216 11.7743 87.7616 12.1193 88.0296 12.3613C88.2976 12.6033 88.6526 12.7253 89.0916 12.7253C89.5506 12.7253 89.9746 12.6513 90.3626 12.5023L90.5266 13.2303C90.0796 13.4243 89.5536 13.5213 88.9446 13.5213C88.5776 13.5213 88.2476 13.4643 87.9566 13.3513C87.6656 13.2383 87.4196 13.0783 87.2186 12.8713C87.0196 12.6643 86.8646 12.4153 86.7576 12.1243C86.6526 11.8333 86.5996 11.5073 86.5996 11.1453C86.5996 10.7833 86.6526 10.4483 86.7576 10.1413C86.8646 9.83428 87.0156 9.56728 87.2086 9.34128C87.4036 9.11428 87.6386 8.93728 87.9116 8.80728C88.1866 8.67828 88.4936 8.61328 88.8296 8.61328C89.1266 8.61328 89.3956 8.66628 89.6406 8.77328C89.8826 8.87928 90.0896 9.03128 90.2596 9.22928C90.4316 9.42628 90.5626 9.66328 90.6526 9.93728C90.7446 10.2113 90.7896 10.5173 90.7896 10.8533ZM89.7896 10.5823C89.7896 10.2133 89.7016 9.91428 89.5236 9.68528C89.3456 9.45628 89.0886 9.34028 88.7526 9.34028C88.4476 9.34028 88.1906 9.45628 87.9776 9.68928C87.7646 9.92228 87.6416 10.2193 87.6086 10.5823H89.7896Z" fill="white"/>
<path d="M95.0098 8.75739C95.1978 8.72539 95.4358 8.69939 95.7268 8.67939C96.0178 8.65939 96.3148 8.65039 96.6198 8.65039C96.8128 8.65039 97.0318 8.66239 97.2738 8.68439C97.5158 8.70639 97.7488 8.75839 97.9668 8.83939C98.1878 8.92039 98.3708 9.04139 98.5198 9.20339C98.6688 9.36539 98.7448 9.58439 98.7448 9.86239C98.7448 10.0054 98.7178 10.1334 98.6668 10.2454C98.6138 10.3584 98.5458 10.4574 98.4578 10.5414C98.3698 10.6254 98.2698 10.6954 98.1568 10.7494C98.0438 10.8044 97.9268 10.8454 97.8028 10.8704L97.8128 10.8994C98.1548 10.9574 98.4338 11.0804 98.6468 11.2684C98.8598 11.4564 98.9668 11.7144 98.9668 12.0444C98.9668 12.3744 98.8748 12.6364 98.6958 12.8304C98.5138 13.0244 98.2918 13.1704 98.0258 13.2674C97.7598 13.3644 97.4808 13.4264 97.1858 13.4524C96.8928 13.4774 96.6288 13.4914 96.3968 13.4914C96.1368 13.4914 95.8828 13.4854 95.6348 13.4714C95.3848 13.4584 95.1778 13.4454 95.0098 13.4324V8.75739ZM96.0178 10.6394H96.5508C96.7128 10.6394 96.8668 10.6284 97.0118 10.6054C97.1578 10.5834 97.2848 10.5474 97.3948 10.4994C97.5058 10.4504 97.5898 10.3864 97.6528 10.3054C97.7138 10.2244 97.7448 10.1264 97.7448 10.0094C97.7448 9.79639 97.6568 9.63939 97.4768 9.53939C97.2988 9.43939 97.0198 9.38939 96.6388 9.38939C96.5298 9.38939 96.4338 9.39239 96.3518 9.39939C96.2718 9.40539 96.1608 9.41539 96.0178 9.42839V10.6394ZM96.0178 12.7244C96.1468 12.7374 96.2558 12.7464 96.3418 12.7534C96.4298 12.7604 96.5308 12.7634 96.6488 12.7634C96.7918 12.7634 96.9358 12.7544 97.0848 12.7344C97.2328 12.7154 97.3698 12.6784 97.4928 12.6234C97.6158 12.5694 97.7138 12.4954 97.7878 12.4014C97.8618 12.3084 97.9008 12.1844 97.9008 12.0304C97.9008 11.7604 97.7798 11.5744 97.5418 11.4714C97.3018 11.3684 96.9798 11.3174 96.5708 11.3174H96.0178V12.7244Z" fill="white"/>
</svg>
