<svg width="28" height="28" viewBox="0 0 28 28" fill="none" xmlns="http://www.w3.org/2000/svg">
<path d="M14 0.5C21.4558 0.5 27.5 6.54416 27.5 14C27.5 21.4558 21.4558 27.5 14 27.5C6.54416 27.5 0.500001 21.4558 0.5 14L0.504883 13.6514C0.686868 6.47251 6.47251 0.686867 13.6514 0.504883L14 0.5Z" stroke="#E44B55"/>
<path d="M16.3124 19.7694L14.7255 19.1956C14.5014 19.8679 14.2412 20.245 14.0171 20.9173H16.3124V19.7694Z" fill="#E44B55"/>
<path d="M13.2323 20.9178V11.1622H14.9985V20.9178H13.2323Z" fill="#E44B55"/>
<path d="M12.0195 11.6013L13.2345 11.1631C13.4586 11.8353 14.0908 12.0767 14.3149 12.749H12.0195V11.6013Z" fill="#E44B55"/>
<path d="M12.0195 19.7694L13.6066 19.1956C13.8307 19.8679 14.0908 20.245 14.3149 20.9173H12.0195V19.7694Z" fill="#E44B55"/>
<path d="M14.1153 9.63486C14.8499 9.63486 15.4375 9.08397 15.4375 8.36781C15.4375 7.63329 14.8499 7.0824 14.1153 7.0824C13.3808 7.0824 12.7932 7.63329 12.7932 8.36781C12.7932 9.08397 13.3808 9.63486 14.1153 9.63486Z" fill="#E44B55"/>
</svg>
