<svg width="30" height="30" viewBox="0 0 30 30" fill="none" xmlns="http://www.w3.org/2000/svg">
<path d="M0.00100088 18.927C0.163985 17.97 0.772924 17.306 1.43286 16.65C5.54845 12.554 9.65503 8.448 13.7516 4.332C14.4696 3.61 15.2895 3.254 16.3114 3.27C18.0192 3.297 19.727 3.277 21.4349 3.277C21.5418 3.277 21.6488 3.277 21.7728 3.277C21.8158 3.142 21.8518 3.014 21.8968 2.888C22.4637 1.299 23.5726 0.347 25.2375 0.05C25.2835 0.042 25.3265 0.017 25.3705 0C25.6824 0 25.9954 0 26.3084 0C26.3634 0.017 26.4174 0.040001 26.4744 0.051001C28.2112 0.376001 29.3301 1.391 29.85 3.073C29.912 3.275 29.951 3.485 30 3.691C30 3.984 30 4.277 30 4.57C29.873 5.008 29.794 5.467 29.609 5.879C29.0971 7.019 28.2132 7.759 27.0213 8.132C26.9563 8.152 26.8893 8.168 26.8243 8.188C26.7963 8.197 26.7713 8.212 26.7283 8.233C26.7283 8.626 26.7283 9.025 26.7283 9.425C26.7283 10.88 26.7143 12.335 26.7333 13.789C26.7453 14.734 26.4194 15.512 25.7494 16.174C24.2226 17.684 22.7097 19.209 21.1899 20.728C21.1139 20.804 21.0389 20.883 20.9519 20.944C20.7179 21.107 20.395 21.07 20.203 20.87C20.004 20.662 19.983 20.356 20.159 20.121C20.223 20.036 20.302 19.961 20.378 19.886C21.8758 18.388 23.3667 16.882 24.8755 15.396C25.3515 14.927 25.5684 14.398 25.5634 13.726C25.5444 11.285 25.5274 8.844 25.5684 6.404C25.5874 5.246 24.7395 4.361 23.5986 4.447C23.3767 4.464 23.1527 4.449 22.9007 4.449C22.9427 5.1 23.2007 5.628 23.5956 6.1C23.6516 6.167 23.7176 6.227 23.7706 6.297C23.9756 6.567 23.9466 6.901 23.7036 7.112C23.4676 7.316 23.1487 7.311 22.9097 7.076C22.3468 6.521 21.9818 5.852 21.8018 5.083C21.7558 4.885 21.7898 4.59 21.6708 4.508C21.5158 4.401 21.2449 4.451 21.0239 4.451C19.4131 4.448 17.8022 4.458 16.1914 4.445C15.5864 4.44 15.1005 4.646 14.6755 5.073C10.379 9.378 6.07539 13.676 1.77482 17.978C0.969903 18.783 0.968903 19.817 1.77182 20.62C4.30357 23.155 6.83732 25.689 9.37206 28.221C10.189 29.037 11.2199 29.039 12.0378 28.224C13.4627 26.805 14.8825 25.38 16.3044 23.958C16.3734 23.889 16.4404 23.816 16.5153 23.755C16.7663 23.552 17.0943 23.568 17.3103 23.789C17.5122 23.996 17.5282 24.325 17.3413 24.564C17.2813 24.641 17.2093 24.708 17.1403 24.777C15.8564 26.061 14.5605 27.334 13.2937 28.635C12.6627 29.283 12.0008 29.848 11.0739 30C10.8199 30 10.5659 30 10.312 30C9.37906 29.835 8.72213 29.249 8.08119 28.601C5.88741 26.381 3.67963 24.174 1.46086 21.979C0.793922 21.32 0.169983 20.654 0 19.688C0.0009999 19.435 0.00100088 19.181 0.00100088 18.927ZM26.7163 6.96C27.9422 6.742 28.9301 5.286 28.8141 3.922C28.6811 2.368 27.3963 1.178 25.8454 1.173C24.5445 1.169 23.1407 2.216 23.0457 3.29C24.0936 3.2 25.0725 3.344 25.8624 4.125C26.6583 4.914 26.7993 5.903 26.7163 6.96Z" fill="#E44B55"/>
<path d="M13.1147 17.775C13.6086 17.808 14.0726 17.839 14.5355 17.871C14.7205 17.884 14.9065 17.886 15.0885 17.917C15.4085 17.972 15.6094 18.238 15.5804 18.539C15.5494 18.855 15.2995 19.077 14.9525 19.062C14.3586 19.036 13.7646 18.992 13.1717 18.956C12.9777 18.944 12.7837 18.933 12.5377 18.918C12.6097 19.008 12.6487 19.068 12.6977 19.118C12.9647 19.389 13.2397 19.652 13.5026 19.927C13.7676 20.204 13.7686 20.546 13.5206 20.786C13.2857 21.013 12.9497 21.002 12.6807 20.757C12.6447 20.724 12.6107 20.689 12.5767 20.654C11.5008 19.578 10.425 18.502 9.34906 17.426C8.9541 17.03 8.9511 16.745 9.34007 16.355C9.63604 16.058 9.92301 15.75 10.236 15.471C11.3499 14.48 13.0357 15.009 13.3297 16.437C13.4237 16.892 13.3247 17.324 13.1147 17.775ZM11.4669 17.863C11.6748 17.639 11.8858 17.447 12.0538 17.223C12.2648 16.942 12.2298 16.557 12.0128 16.333C11.8048 16.119 11.4169 16.062 11.1499 16.255C10.9039 16.434 10.6949 16.664 10.4859 16.857C10.8259 17.206 11.1319 17.52 11.4669 17.863Z" fill="#E44B55"/>
<path d="M17.6642 9.679C17.9782 9.986 18.2752 10.278 18.6061 10.602C18.8781 10.32 19.1671 10.002 19.4761 9.705C19.789 9.405 20.231 9.464 20.419 9.815C20.5639 10.085 20.5 10.329 20.295 10.536C20 10.834 19.696 11.124 19.3921 11.421C19.713 11.723 20.014 12.006 20.375 12.345C20.6729 12.028 21.0049 11.664 21.3509 11.314C21.5508 11.112 21.7978 11.08 22.0488 11.224C22.2888 11.363 22.3788 11.585 22.3188 11.848C22.2928 11.964 22.2198 12.084 22.1358 12.17C21.6798 12.639 21.2179 13.102 20.7499 13.56C20.442 13.861 20.136 13.859 19.826 13.551C18.6981 12.429 17.5722 11.303 16.4504 10.175C16.1434 9.866 16.1444 9.559 16.4454 9.252C16.8963 8.792 17.3523 8.337 17.8122 7.884C18.0932 7.607 18.4562 7.593 18.6951 7.838C18.9401 8.089 18.9201 8.424 18.6301 8.719C18.3092 9.047 17.9802 9.366 17.6642 9.679Z" fill="#E44B55"/>
<path d="M15.9844 14.831C16.3044 15.147 16.5963 15.434 16.9413 15.774C17.2733 15.424 17.6062 15.06 17.9542 14.711C18.1552 14.51 18.4012 14.478 18.6521 14.623C18.8921 14.762 18.9821 14.986 18.9191 15.248C18.8891 15.372 18.8061 15.498 18.7151 15.591C18.2732 16.046 17.8232 16.494 17.3713 16.939C17.0383 17.266 16.7423 17.263 16.4054 16.928C15.2915 15.819 14.1796 14.707 13.0707 13.593C12.7377 13.259 12.7397 12.961 13.0687 12.628C13.5146 12.176 13.9626 11.727 14.4146 11.281C14.6945 11.005 15.0605 10.992 15.2975 11.237C15.5344 11.482 15.5234 11.817 15.2505 12.097C14.9245 12.432 14.5865 12.755 14.2656 13.072C14.5795 13.385 14.8735 13.68 15.1995 14.005C15.4595 13.734 15.7324 13.442 16.0144 13.16C16.3284 12.847 16.6563 12.82 16.9163 13.073C17.1843 13.334 17.1573 13.671 16.8343 13.997C16.5603 14.276 16.2774 14.545 15.9844 14.831Z" fill="#E44B55"/>
<path d="M8.0172 21.123C8.26917 20.861 8.52015 20.59 8.78212 20.329C9.07809 20.035 9.44005 20.016 9.68403 20.27C9.92101 20.517 9.89601 20.857 9.61404 21.153C9.48605 21.287 9.35506 21.418 9.22108 21.546C9.08709 21.674 8.9471 21.795 8.78412 21.943C8.87411 22.041 8.93411 22.111 8.9991 22.177C9.37006 22.55 9.74703 22.918 10.114 23.296C10.378 23.568 10.385 23.921 10.15 24.157C9.91401 24.394 9.55804 24.39 9.29007 24.124C8.14918 22.99 7.0103 21.853 5.87741 20.71C5.58644 20.417 5.59644 20.107 5.88941 19.808C6.32637 19.362 6.76732 18.921 7.21328 18.484C7.48325 18.219 7.83522 18.206 8.07419 18.437C8.32717 18.682 8.31617 19.025 8.0322 19.317C7.72723 19.63 7.41226 19.934 7.11429 20.229C7.41326 20.524 7.69523 20.803 8.0172 21.123Z" fill="#E44B55"/>
<path d="M18.7621 21.747C19.0771 21.751 19.3361 22.014 19.3371 22.331C19.3381 22.664 19.0691 22.924 18.7361 22.913C18.4212 22.903 18.1632 22.632 18.1702 22.32C18.1782 22.01 18.4532 21.743 18.7621 21.747Z" fill="#E44B55"/>
</svg>
