<svg width="30" height="30" viewBox="0 0 30 30" fill="none" xmlns="http://www.w3.org/2000/svg">
<path d="M9.21078 2.91352C10.5996 3.12368 11.6735 2.59085 12.5514 1.50664C12.8565 1.13081 13.2427 0.810619 13.629 0.516387C14.5201 -0.159854 15.4597 -0.178398 16.3496 0.499079C16.8582 0.886032 17.3328 1.33603 17.7554 1.81818C18.4274 2.58467 19.2313 2.93701 20.2327 2.90363C20.8332 2.88385 21.4435 2.8789 22.0367 2.96297C23.4243 3.15706 24.0818 3.9285 24.1447 5.36875C24.1726 6.0079 24.1653 6.64829 24.169 7.28744C24.1726 8.0119 24.4256 8.61644 24.9342 9.1332C25.4693 9.67716 26.0118 10.2236 26.4743 10.8294C27.1875 11.7652 27.1645 12.7468 26.4695 13.6963C26.2225 14.0325 25.9307 14.3354 25.6473 14.6433C25.3882 14.9251 25.1158 15.1934 24.8482 15.4666C24.4474 15.8771 24.2186 16.3641 24.1992 16.9489C24.1907 17.2147 24.1665 17.4793 24.1617 17.7438C24.1532 18.1543 24.1629 18.5647 24.1496 18.9752C24.0939 20.6936 23.2766 21.5318 21.59 21.596C20.8816 21.6232 20.1721 21.6195 19.4638 21.6504C18.9698 21.6715 18.5593 21.9076 18.207 22.2525C17.8401 22.6123 17.4829 22.9819 17.1136 23.338C16.8993 23.5444 16.6778 23.7472 16.4417 23.9264C15.4488 24.683 14.4947 24.6917 13.5212 23.9017C13.0236 23.4974 12.5635 23.0388 12.1312 22.5616C11.5186 21.8841 10.7848 21.5812 9.89125 21.6022C9.28948 21.6158 8.68045 21.6282 8.08595 21.5528C6.57367 21.3612 5.91499 20.6021 5.8484 19.0382C5.82297 18.4361 5.83266 17.8316 5.83145 17.2283C5.82903 16.5199 5.6014 15.9129 5.10376 15.4048C4.59523 14.8843 4.07337 14.37 3.62175 13.8001C2.79235 12.7518 2.79719 11.7615 3.60964 10.7045C3.91476 10.3077 4.25015 9.9207 4.62792 9.59927C5.53723 8.8266 5.92953 7.86602 5.84719 6.6656C5.81208 6.15131 5.83629 5.6259 5.89925 5.11408C6.07361 3.69608 6.81704 3.005 8.21793 2.9197C8.54726 2.89621 8.88023 2.91352 9.21078 2.91352ZM6.82309 18.0146C6.82794 18.0146 6.83278 18.0146 6.83762 18.0146C6.83762 18.3768 6.81704 18.7403 6.84125 19.1C6.90543 20.0631 7.25777 20.4414 8.19855 20.5254C8.73857 20.5737 9.28706 20.6008 9.82829 20.5724C11.0936 20.5057 12.0961 21.0002 12.934 21.9422C13.2984 22.3514 13.6956 22.7384 14.1193 23.082C14.7465 23.5926 15.2115 23.5778 15.8544 23.0858C16.0615 22.9275 16.2516 22.7433 16.4392 22.5591C16.7892 22.2167 17.1294 21.8643 17.4757 21.5182C18.1065 20.8852 18.8717 20.5971 19.7508 20.5848C20.4591 20.5749 21.171 20.5761 21.8757 20.5143C22.6712 20.4451 23.0211 20.0754 23.0865 19.2681C23.1386 18.6191 23.1604 17.9664 23.147 17.3161C23.1228 16.1799 23.5345 15.254 24.3373 14.4825C24.7332 14.103 25.1243 13.7123 25.4754 13.2908C26.1426 12.4909 26.1353 11.9432 25.4488 11.1508C25.0262 10.6637 24.5709 10.205 24.1181 9.74515C23.4522 9.06767 23.1591 8.24803 23.1531 7.29733C23.1495 6.57412 23.141 5.84842 23.0792 5.12891C23.0187 4.42424 22.6942 4.07808 22.0053 3.99402C21.4095 3.92108 20.8017 3.90253 20.2024 3.92108C18.925 3.96187 17.8728 3.51929 17.0277 2.53522C16.7165 2.17299 16.3702 1.8392 16.013 1.52395C15.2575 0.857598 14.7332 0.847707 13.9716 1.50911C13.514 1.90719 13.089 2.34854 12.67 2.79113C11.9847 3.51682 11.1626 3.89512 10.1746 3.89882C9.81981 3.90006 9.46505 3.9013 9.11028 3.9149C8.70951 3.93097 8.30389 3.9285 7.91038 3.99402C7.27956 4.09786 6.98171 4.39086 6.90543 5.03249C6.8352 5.62837 6.80735 6.23661 6.82914 6.8362C6.87879 8.17879 6.45138 9.28773 5.44763 10.1754C5.06501 10.5141 4.7163 10.8998 4.39544 11.3004C3.84816 11.984 3.85301 12.4971 4.39787 13.1869C4.66424 13.5244 4.94999 13.8558 5.2757 14.1314C6.43806 15.1205 6.95386 16.3703 6.82309 17.9045C6.82067 17.9429 6.82309 17.9787 6.82309 18.0146Z" fill="#E44B55"/>
<path d="M10.24 28.7454C11.1323 28.2657 11.9653 27.8182 12.7972 27.3694C13.4655 27.0084 14.1375 26.6561 14.7974 26.279C14.9996 26.1641 15.1497 26.174 15.3495 26.2827C16.7322 27.0431 18.1222 27.7898 19.511 28.5389C19.6212 28.5983 19.7362 28.6502 19.8924 28.7281C19.8924 28.0172 19.8924 27.3571 19.8924 26.6969C19.8924 25.7549 19.8912 24.8141 19.8936 23.872C19.8948 23.4603 20.0886 23.2205 20.4022 23.2292C20.7024 23.2378 20.8853 23.469 20.8853 23.8621C20.8877 25.6485 20.8889 27.435 20.8853 29.2226C20.8841 29.9001 20.43 30.1869 19.8428 29.8729C18.3462 29.073 16.8533 28.267 15.3653 27.4523C15.1558 27.3373 14.9984 27.3274 14.7817 27.4461C13.3263 28.2459 11.8612 29.0297 10.3986 29.8172C9.6612 30.2153 9.24589 29.9557 9.24589 29.0977C9.24589 27.3719 9.24347 25.6448 9.25074 23.919C9.25195 23.757 9.26284 23.537 9.35971 23.448C9.48684 23.3305 9.71205 23.2539 9.88277 23.2724C10.1346 23.2996 10.2375 23.5271 10.2387 23.7818C10.2412 24.5186 10.24 25.2542 10.24 25.991C10.24 26.8836 10.24 27.7762 10.24 28.7454Z" fill="#E44B55"/>
<path d="M15.002 18.0603C11.8794 18.0504 9.41662 15.6385 9.26406 12.4563C9.1224 9.47935 11.4362 6.75337 14.3458 6.44678C15.1001 6.36766 15.8314 6.43071 16.5543 6.63964C16.9696 6.75956 17.1451 7.01794 17.0458 7.33442C16.9538 7.62742 16.6802 7.73003 16.2806 7.61876C13.2343 6.77192 10.2702 9.04666 10.2581 12.2412C10.2509 14.1562 11.4132 15.9451 13.1434 16.6831C14.9391 17.4496 16.9599 17.0503 18.3184 15.6533C19.3052 14.6383 19.752 13.4095 19.7011 11.984C19.6963 11.832 19.6878 11.628 19.7726 11.539C19.8961 11.4092 20.1019 11.2979 20.2738 11.2967C20.5233 11.2942 20.6916 11.5007 20.6758 11.759C20.6346 12.4415 20.6685 13.1535 20.4845 13.7964C19.8089 16.149 18.2506 17.5621 15.8859 18.0343C15.8048 18.0504 15.7212 18.0591 15.6389 18.0615C15.427 18.0628 15.2139 18.0603 15.002 18.0603Z" fill="#E44B55"/>
<path d="M14.9015 12.8272C15.6365 12.0718 16.3496 11.3338 17.0664 10.6007C18.0847 9.55971 19.1066 8.52001 20.1297 7.48277C20.229 7.38264 20.3441 7.23428 20.4591 7.2281C20.6383 7.21698 20.8877 7.25283 20.9882 7.37151C21.0887 7.49143 21.0645 7.73992 21.0548 7.9303C21.0512 8.00572 20.9458 8.08113 20.8792 8.14912C18.9504 10.121 17.0204 12.0916 15.0892 14.0622C15.0323 14.1203 14.9669 14.171 14.8846 14.2439C14.0334 13.3748 13.1907 12.5132 12.3492 11.6527C12.216 11.5167 12.0767 11.3844 11.9496 11.2423C11.7244 10.9925 11.7159 10.707 11.9218 10.5042C12.1276 10.3015 12.4121 10.3064 12.6446 10.5413C13.3335 11.2361 14.0164 11.9383 14.7017 12.638C14.7514 12.6875 14.8035 12.7345 14.9015 12.8272Z" fill="#E44B55"/>
</svg>
