<svg width="144" height="35" viewBox="0 0 144 35" fill="none" xmlns="http://www.w3.org/2000/svg">
<path fill-rule="evenodd" clip-rule="evenodd" d="M107.148 12.3971L107.15 9.75763L100.482 9.73738L100.474 34.3654L107.544 34.3735C107.616 33.7719 107.564 24.0953 107.564 23.2081C107.564 21.4599 107.381 19.5841 108.073 18.1317C109.563 15.0061 113.598 15.1479 114.813 17.9332C115.41 19.3005 115.225 21.5106 115.225 23.1432C115.225 25.0069 115.225 26.8705 115.225 28.7341C115.225 30.5288 115.134 32.5889 115.233 34.3512L122.313 34.3735C122.421 32.6315 122.321 30.5572 122.321 28.8009C122.321 26.9373 122.321 25.0737 122.321 23.2101C122.321 21.47 122.142 19.5254 122.821 18.0912C123.381 16.9082 124.376 15.8995 126.102 15.8407C127.892 15.7799 128.954 16.6672 129.497 17.9798C130.05 19.3208 129.889 21.6078 129.889 23.2101C129.889 25.0737 129.889 26.9373 129.889 28.8009C129.889 30.5815 129.803 32.593 129.895 34.3452L136.987 34.3756C137.069 33.387 136.999 24.4619 136.999 23.2101C136.999 21.3505 137.023 19.4748 136.997 17.6172C136.955 14.597 135.527 11.8805 133.079 10.3795C130.106 8.55844 125.265 8.64149 122.482 11.1047C122.208 11.3478 122.021 11.4896 121.776 11.7671C120.913 12.7475 121.122 12.7414 120.354 11.8299C119.805 11.1776 119.016 10.5476 118.222 10.1202C117.091 9.5105 115.667 9.17424 114.153 9.13373C111.758 9.06891 109.32 9.96628 107.932 11.8096C107.447 12.4538 107.721 12.391 107.148 12.3971Z" fill="white"/>
<path fill-rule="evenodd" clip-rule="evenodd" d="M20.5828 3.33222C20.5868 3.43553 21.4877 6.90955 21.6787 7.18301L24.115 6.48416C24.5367 8.1209 25.016 9.75966 25.4873 11.368C26.8895 16.1385 28.2558 21.2249 29.6162 26.0318C30.6146 29.5626 31.2173 32.7429 33.9977 34.1386C36.4997 35.3945 39.129 34.3593 41.5315 33.4944C42.1719 33.2635 43.2817 32.9718 43.8267 32.678L41.6151 27.2209C40.4854 27.3161 38.773 28.416 37.6532 27.9198C36.5852 27.4458 36.3366 25.8576 35.9806 24.5571C35.2507 21.8893 34.483 19.3046 33.7451 16.6429C33.5442 15.9157 29.4273 1.14248 29.2324 0.820395L20.5828 3.33222Z" fill="white"/>
<path d="M12.5816 9.28363C10.9885 9.57735 9.4153 10.3653 8.33932 11.4632C7.45626 12.3667 7.83216 12.5368 7.12214 12.5287L7.12412 0.0182333L0.00198778 0L0 34.3634L7.01275 34.3756L7.0386 31.5842C7.49008 31.5396 7.4861 31.6814 7.67305 31.9488C7.86597 32.2243 7.97536 32.3337 8.17822 32.5525C11.0104 35.5869 16.078 35.597 19.4412 33.6929C22.9157 31.726 25.2725 27.8164 25.2686 22.1588C25.2666 19.4829 24.7733 17.0581 23.7153 15.0203C21.5295 10.8069 17.339 8.41057 12.5816 9.28363ZM13.0887 28.4323C9.45508 28.7179 7.23152 26.0602 7.00479 22.6186C6.75618 18.8387 8.66152 15.9663 12.0426 15.6726C19.7435 15.0021 20.1035 27.8813 13.0887 28.4323Z" fill="white"/>
<path d="M97.1343 21.0588C96.8519 15.8833 93.5066 11.5625 88.8706 9.88931C87.2039 9.28768 85.1494 9.0284 83.2122 9.16209C80.4318 9.3525 78.1486 10.1425 76.0483 11.6921C75.7222 11.9312 75.4557 12.1884 75.1553 12.4275L74.3399 13.2398C72.3789 15.5389 70.8176 18.782 71.1418 23.0764C71.6867 30.2736 77.4326 35.437 85.1454 34.9427C92.2835 34.4849 97.5639 28.9225 97.1343 21.0588ZM84.9505 28.3978C81.2572 28.9002 78.6896 26.2405 78.3335 22.9224C77.9159 19.0311 80.1096 16.1486 83.3813 15.705C87.0348 15.2087 89.5786 17.9575 89.9386 21.227C90.3523 24.9805 88.1208 27.9664 84.9505 28.3978Z" fill="white"/>
<path d="M64.8868 12.2836C62.5181 10.2154 59.4095 8.87242 55.1891 9.16411C48.0252 9.65838 42.6314 15.1115 43.1465 23.0339C43.6139 30.231 49.4373 35.4026 57.0745 34.9468C64.1967 34.5214 69.672 28.8982 69.137 21.0345C68.8566 16.9427 66.9095 14.048 64.8868 12.2836ZM56.7543 28.4201C53.1266 28.7867 50.561 26.0987 50.3184 22.728C50.0419 18.8853 52.172 16.0696 55.5192 15.6827C59.1111 15.2674 61.6788 18.0669 61.9572 21.3627C62.2734 25.1223 60.03 28.0899 56.7543 28.4201Z" fill="white"/>
<path d="M37.6532 27.9218C36.5852 27.4478 36.3366 25.8597 35.9806 24.5592C35.2507 21.8914 34.483 19.3066 33.7451 16.6449C33.5442 15.9177 29.4273 1.1445 29.2324 0.82242L20.5808 3.33222C20.5848 3.43553 21.4857 6.90955 21.6767 7.18301L24.113 6.48416C24.5347 8.1209 25.014 9.75966 25.4854 11.368C26.8875 16.1385 28.2539 21.2249 29.6142 26.0318C30.6127 29.5626 31.2153 32.7429 33.9957 34.1386C36.4977 35.3945 39.127 34.3593 41.5295 33.4944C42.17 33.2635 43.2798 32.9718 43.8247 32.678L41.6131 27.2209C40.4854 27.3181 38.775 28.4181 37.6532 27.9218Z" fill="white"/>
<path d="M140.643 11.919C138.791 11.919 137.286 10.3856 137.286 8.4997C137.286 6.6138 138.791 5.08037 140.643 5.08037C142.494 5.08037 144 6.6138 144 8.4997C144 10.3836 142.494 11.919 140.643 11.919ZM140.643 5.48348C139.01 5.48348 137.683 6.83662 137.683 8.49767C137.683 10.1587 139.012 11.5119 140.643 11.5119C142.274 11.5119 143.602 10.1587 143.602 8.49767C143.602 6.83662 142.276 5.48348 140.643 5.48348Z" fill="white"/>
<path d="M141.584 10.3046L140.788 8.92306H139.953V10.3046H139.481V6.6928H140.899C141.204 6.6928 141.464 6.80219 141.679 7.02096C141.896 7.23973 142.003 7.50307 142.003 7.813C142.003 8.04595 141.936 8.26067 141.798 8.45311C141.661 8.64555 141.486 8.78126 141.269 8.86027L142.105 10.3046H141.584ZM139.953 7.1425V8.48957H140.899C141.074 8.48957 141.224 8.42272 141.347 8.29105C141.47 8.15938 141.532 7.99936 141.532 7.813C141.532 7.62663 141.47 7.46863 141.347 7.33899C141.224 7.20732 141.074 7.1425 140.899 7.1425H139.953Z" fill="white"/>
</svg>
