<svg width="15" height="15" viewBox="0 0 15 15" fill="none" xmlns="http://www.w3.org/2000/svg">
<path d="M6.21181 8.78881C4.78017 7.35707 4.45691 5.92533 4.38398 5.35171C4.36361 5.1931 4.41818 5.03404 4.53165 4.92136L5.6902 3.76325C5.86062 3.59291 5.89087 3.32746 5.76313 3.12315L3.91849 0.258644C3.77717 0.0324135 3.48699 -0.0492354 3.24845 0.0701082L0.287154 1.46486C0.0942498 1.55986 -0.019214 1.76483 0.0026882 1.97875C0.157852 3.4529 0.800486 7.07672 4.36148 10.6382C7.92248 14.1997 11.5455 14.8421 13.0204 14.9973C13.2343 15.0192 13.4392 14.9057 13.5342 14.7128L14.9289 11.7513C15.0478 11.5133 14.9667 11.2239 14.7414 11.0823L11.8771 9.23804C11.6729 9.11015 11.4075 9.14018 11.237 9.31045L10.079 10.4691C9.96632 10.5826 9.80727 10.6371 9.64867 10.6168C9.07509 10.5438 7.64345 10.2205 6.21181 8.78881Z" fill="black"/>
<path d="M11.8967 8.0173C11.6111 8.0173 11.3795 7.78572 11.3795 7.50006C11.3771 5.35856 9.64177 3.62313 7.50041 3.62071C7.21477 3.62071 6.9832 3.38913 6.9832 3.10346C6.9832 2.8178 7.21477 2.58622 7.50041 2.58622C10.2128 2.58921 12.4109 4.78746 12.4139 7.50006C12.4139 7.78572 12.1824 8.0173 11.8967 8.0173Z" fill="black"/>
<path d="M14.4828 8.01731C14.1971 8.01731 13.9656 7.78574 13.9656 7.50007C13.9616 3.93088 11.0694 1.03848 7.50041 1.03449C7.21477 1.03449 6.9832 0.802913 6.9832 0.517246C6.9832 0.231579 7.21477 0 7.50041 0C11.6404 0.00456104 14.9954 3.35979 15 7.50007C15 7.63725 14.9455 7.76881 14.8485 7.86582C14.7515 7.96282 14.62 8.01731 14.4828 8.01731Z" fill="black"/>
</svg>
