<svg width="70" height="71" viewBox="0 0 70 71" fill="none" xmlns="http://www.w3.org/2000/svg">
<circle cx="35" cy="35.5" r="35" fill="#E44B55"/>
<path d="M49.8974 43.3974C48.9841 43.6727 48.0036 43.2079 47.7104 42.3618L41.0997 23.5351L34.3482 25.5645L35.2995 28.274L36.7154 27.8483L42.9278 45.5402C43.7178 47.7889 46.3288 49.0195 48.7594 48.2888L53 47.0137L51.5556 42.8995L49.8974 43.3974Z" fill="white"/>
<path d="M26.8811 43.8326C24.2395 43.8326 22.5019 41.8997 22.5019 39.2671C22.5019 36.4672 24.2746 34.7002 26.8811 34.7002C29.4868 34.7002 31.2602 36.5671 31.2602 39.2671C31.2602 41.9671 29.4868 43.8326 26.8811 43.8326ZM36.3397 35.6003C35.9363 34.4749 35.3316 33.4845 34.5167 32.6344C32.9249 30.8998 30.886 30.0342 28.3174 30.0342C25.603 30.0342 23.7676 31.2345 22.8987 32.4671H22.6098V23.5H17V48.5H22.6098V46.0658H22.828C23.4057 46.9004 24.9625 48.5 28.1467 48.5C30.7525 48.5 32.852 47.6654 34.4817 46.0003C36.1085 44.3326 36.9423 42.1324 36.9423 39.367C36.9423 37.9846 36.7432 36.7249 36.3397 35.6003Z" fill="white"/>
</svg>
