<svg width="135" height="40" viewBox="0 0 135 40" fill="none" xmlns="http://www.w3.org/2000/svg">
<path d="M130 0H5C2.23858 0 0 2.23858 0 5V35C0 37.7614 2.23858 40 5 40H130C132.761 40 135 37.7614 135 35V5C135 2.23858 132.761 0 130 0Z" fill="black"/>
<path d="M68.1404 21.7501C67.3006 21.7541 66.4809 22.0067 65.7846 22.4761C65.0884 22.9455 64.5468 23.6106 64.2281 24.3876C63.9095 25.1645 63.8282 26.0184 63.9945 26.8415C64.1607 27.6646 64.567 28.42 65.1622 29.0124C65.7574 29.6047 66.5147 30.0075 67.3385 30.1699C68.1624 30.3323 69.0159 30.2469 69.7914 29.9247C70.5668 29.6024 71.2293 29.0577 71.6955 28.3592C72.1616 27.6607 72.4103 26.8399 72.4103 26.0001C72.4185 25.4381 72.3135 24.8801 72.1015 24.3595C71.8896 23.8389 71.575 23.3662 71.1766 22.9697C70.7782 22.5731 70.3041 22.2608 69.7824 22.0513C69.2608 21.8418 68.7024 21.7394 68.1404 21.7501ZM68.1404 28.5801C67.6239 28.6163 67.1086 28.4962 66.6613 28.2355C66.214 27.9749 65.8555 27.5857 65.6324 27.1186C65.4092 26.6515 65.3318 26.128 65.41 25.6163C65.4883 25.1046 65.7187 24.6282 66.0713 24.2492C66.4239 23.8701 66.8824 23.606 67.3871 23.4909C67.8919 23.3759 68.4195 23.4154 68.9015 23.6042C69.3835 23.7931 69.7976 24.1226 70.0898 24.5499C70.3821 24.9771 70.5391 25.4825 70.5403 26.0001C70.5565 26.3282 70.5067 26.6561 70.3941 26.9646C70.2814 27.2731 70.1082 27.5559 69.8845 27.7963C69.6608 28.0368 69.3913 28.23 69.0917 28.3646C68.7922 28.4993 68.4687 28.5725 68.1404 28.5801ZM58.8304 21.7501C57.9906 21.7541 57.1709 22.0067 56.4746 22.4761C55.7784 22.9455 55.2368 23.6106 54.9182 24.3876C54.5995 25.1645 54.5182 26.0184 54.6844 26.8415C54.8507 27.6646 55.257 28.42 55.8522 29.0124C56.4474 29.6047 57.2047 30.0075 58.0285 30.1699C58.8524 30.3323 59.7059 30.2469 60.4813 29.9247C61.2567 29.6024 61.9193 29.0577 62.3855 28.3592C62.8516 27.6607 63.1003 26.8399 63.1003 26.0001C63.1085 25.4372 63.0032 24.8784 62.7906 24.3571C62.5781 23.8358 62.2626 23.3627 61.8631 22.966C61.4636 22.5693 60.9883 22.2572 60.4655 22.0483C59.9427 21.8394 59.3832 21.738 58.8203 21.7501H58.8304ZM58.8304 28.5801C58.3139 28.6163 57.7986 28.4962 57.3513 28.2355C56.904 27.9749 56.5455 27.5857 56.3224 27.1186C56.0992 26.6515 56.0218 26.128 56.1 25.6163C56.1783 25.1046 56.4087 24.6282 56.7613 24.2492C57.1139 23.8701 57.5724 23.606 58.0771 23.4909C58.5819 23.3759 59.1095 23.4154 59.5915 23.6042C60.0735 23.7931 60.4876 24.1226 60.7798 24.5499C61.0721 24.9771 61.2291 25.4825 61.2303 26.0001C61.2465 26.329 61.1964 26.6577 61.0832 26.9669C60.9699 27.276 60.7957 27.5592 60.571 27.7998C60.3462 28.0404 60.0755 28.2335 59.7748 28.3675C59.4741 28.5016 59.1495 28.5738 58.8203 28.5801H58.8304ZM47.7503 23.0501V24.8502H52.0703C52.0026 25.698 51.6502 26.4979 51.0703 27.1201C50.6381 27.5604 50.1186 27.9053 49.545 28.1326C48.9715 28.3599 48.3568 28.4647 47.7404 28.4402C46.4673 28.4402 45.2464 27.9344 44.3462 27.0343C43.446 26.1341 42.9403 24.9132 42.9403 23.6402C42.9403 22.3671 43.446 21.1462 44.3462 20.246C45.2464 19.3459 46.4673 18.8401 47.7404 18.8401C48.9513 18.8256 50.1191 19.2891 50.9904 20.1302L52.2603 18.8601C51.6647 18.2702 50.957 17.8053 50.1791 17.4927C49.4012 17.1802 48.5686 17.0263 47.7303 17.0402C46.8413 17.0056 45.9545 17.1508 45.123 17.4671C44.2914 17.7835 43.5323 18.2644 42.8911 18.8812C42.2499 19.4979 41.7398 20.2377 41.3913 21.0563C41.0429 21.8749 40.8633 22.7555 40.8633 23.6451C40.8633 24.5348 41.0429 25.4153 41.3913 26.2339C41.7398 27.0525 42.2499 27.7924 42.8911 28.4091C43.5323 29.0259 44.2914 29.5068 45.123 29.8232C45.9545 30.1395 46.8413 30.2847 47.7303 30.2501C48.5863 30.2888 49.4406 30.1437 50.2358 29.8246C51.031 29.5055 51.7486 29.0198 52.3403 28.4001C53.388 27.2491 53.9474 25.7359 53.9004 24.1801C53.9036 23.8011 53.8701 23.4227 53.8004 23.0501H47.7503ZM93.0604 24.4502C92.7996 23.6829 92.3119 23.0129 91.6619 22.529C91.0119 22.0451 90.2302 21.77 89.4203 21.7401C88.8733 21.7391 88.3319 21.8502 87.8296 22.0667C87.3272 22.2831 86.8747 22.6004 86.4998 22.9987C86.1249 23.397 85.8356 23.868 85.65 24.3825C85.4643 24.8971 85.3862 25.4442 85.4203 25.9901C85.4082 26.5491 85.5088 27.1047 85.7162 27.6238C85.9236 28.143 86.2335 28.615 86.6274 29.0117C87.0213 29.4084 87.4911 29.7217 88.0088 29.9327C88.5265 30.1438 89.0813 30.2483 89.6403 30.2401C90.3398 30.2439 91.0294 30.0742 91.6472 29.7461C92.2649 29.418 92.7918 28.9418 93.1804 28.3601L91.7303 27.3601C91.5139 27.7209 91.2075 28.0193 90.8412 28.2262C90.4748 28.433 90.061 28.5412 89.6403 28.5402C89.2072 28.5567 88.7791 28.4425 88.4117 28.2124C88.0443 27.9823 87.7546 27.647 87.5803 27.2501L93.2703 24.9001L93.0604 24.4502ZM87.2604 25.8701C87.2401 25.5608 87.2817 25.2506 87.3829 24.9576C87.484 24.6646 87.6426 24.3947 87.8493 24.1638C88.056 23.9328 88.3068 23.7454 88.5869 23.6126C88.8669 23.4797 89.1707 23.4041 89.4803 23.3902C89.8029 23.3689 90.1246 23.4429 90.4055 23.6029C90.6864 23.7629 90.9141 24.0019 91.0604 24.2902L87.2604 25.8701ZM82.6403 29.9901H84.5104V17.5001H82.6403V29.9901ZM79.5803 22.6902H79.5203C79.2385 22.375 78.8932 22.1231 78.5072 21.9507C78.1212 21.7784 77.7031 21.6896 77.2803 21.6902C76.1875 21.7431 75.157 22.2146 74.4023 23.0067C73.6476 23.7989 73.2267 24.8511 73.2267 25.9452C73.2267 27.0393 73.6476 28.0914 74.4023 28.8836C75.157 29.6757 76.1875 30.1472 77.2803 30.2002C77.7041 30.2073 78.1243 30.1214 78.5113 29.9487C78.8983 29.7759 79.2427 29.5204 79.5203 29.2002H79.5803V29.8101C79.5803 31.4401 78.7104 32.3101 77.3104 32.3101C76.8441 32.2992 76.3916 32.1498 76.0105 31.8809C75.6294 31.612 75.3369 31.2358 75.1703 30.8001L73.5403 31.4802C73.8472 32.2265 74.37 32.8642 75.0417 33.3114C75.7134 33.7586 76.5034 33.995 77.3104 33.9901C79.5004 33.9901 81.3104 32.7001 81.3104 29.5601V21.9202H79.5403L79.5803 22.6902ZM77.4404 28.5702C76.7953 28.5133 76.195 28.2169 75.7576 27.7393C75.3203 27.2618 75.0777 26.6377 75.0777 25.9901C75.0777 25.3426 75.3203 24.7185 75.7576 24.241C76.195 23.7634 76.7953 23.467 77.4404 23.4102C78.0693 23.4886 78.6479 23.7941 79.0674 24.2692C79.487 24.7443 79.7185 25.3563 79.7185 25.9901C79.7185 26.624 79.487 27.2359 79.0674 27.7111C78.6479 28.1862 78.0693 28.4917 77.4404 28.5702ZM101.81 17.5001H97.3403V30.0001H99.2103V25.2602H101.82C102.353 25.2984 102.888 25.2265 103.392 25.0489C103.896 24.8712 104.358 24.5917 104.749 24.2276C105.14 23.8636 105.452 23.4229 105.666 22.933C105.879 22.4431 105.989 21.9145 105.989 21.3802C105.989 20.8458 105.879 20.3172 105.666 19.8273C105.452 19.3374 105.14 18.8967 104.749 18.5326C104.358 18.1686 103.896 17.8891 103.392 17.7114C102.888 17.5338 102.353 17.4619 101.82 17.5001H101.81ZM101.81 23.5001H99.1603V19.2101H101.81C102.379 19.2101 102.925 19.4361 103.327 19.8384C103.729 20.2407 103.955 20.7863 103.955 21.3552C103.955 21.924 103.729 22.4696 103.327 22.8719C102.925 23.2741 102.379 23.5001 101.81 23.5001ZM113.34 21.7002C112.66 21.6595 111.982 21.8185 111.39 22.1579C110.799 22.4972 110.319 23.002 110.01 23.6101L111.67 24.3001C111.834 23.9985 112.082 23.7509 112.384 23.5876C112.685 23.4242 113.028 23.3522 113.37 23.3802C113.608 23.3524 113.848 23.3722 114.078 23.4385C114.308 23.5047 114.522 23.616 114.708 23.7659C114.894 23.9157 115.048 24.1012 115.162 24.3114C115.276 24.5216 115.347 24.7523 115.37 24.9901V25.1201C114.77 24.8021 114.1 24.6373 113.42 24.6402C111.63 24.6402 109.82 25.6402 109.82 27.4502C109.838 27.8361 109.933 28.2146 110.099 28.5632C110.266 28.9118 110.5 29.2236 110.789 29.4799C111.078 29.7363 111.416 29.9322 111.782 30.0559C112.148 30.1796 112.535 30.2286 112.92 30.2002C113.39 30.2282 113.858 30.1298 114.277 29.9152C114.696 29.7007 115.049 29.3778 115.3 28.9802H115.36V29.9802H117.16V25.1902C117.18 22.9701 115.52 21.7302 113.39 21.7302L113.34 21.7002ZM113.11 28.5501C112.5 28.5501 111.65 28.2401 111.65 27.4901C111.65 26.4901 112.71 26.1602 113.65 26.1602C114.244 26.1455 114.831 26.2905 115.35 26.5801C115.288 27.1215 115.032 27.6221 114.629 27.9896C114.227 28.3571 113.705 28.5669 113.16 28.5801L113.11 28.5501ZM123.69 21.9701L121.55 27.3902H121.49L119.27 21.9701H117.27L120.6 29.5501L118.7 33.7602H120.65L125.78 21.9701H123.69ZM106.88 29.9701H108.75V17.5001H106.98L106.88 29.9701Z" fill="white"/>
<path d="M10.4304 7.5C10.1045 7.89111 9.93993 8.39179 9.97038 8.89999V31.02C9.93993 31.5282 10.1045 32.0289 10.4304 32.42L10.5004 32.49L22.8904 20.1V19.81L10.5104 7.5H10.4304Z" fill="url(#paint0_linear_3108_1841)"/>
<path d="M26.9796 24.2805L22.8496 20.1505V19.8604L26.9796 15.7305L27.0696 15.7805L31.9596 18.5605C33.3596 19.3505 33.3596 20.6505 31.9596 21.4505L27.0696 24.2305L26.9796 24.2805Z" fill="url(#paint1_linear_3108_1841)"/>
<path d="M27.1197 24.22L22.8997 20L10.4297 32.5C10.715 32.7509 11.0791 32.8941 11.4589 32.9051C11.8387 32.916 12.2103 32.794 12.5097 32.56L27.1197 24.26" fill="url(#paint2_linear_3108_1841)"/>
<path d="M27.1197 15.7801L12.5097 7.50007C12.2103 7.26608 11.8387 7.14402 11.4589 7.15498C11.0791 7.16593 10.715 7.30921 10.4297 7.56007L22.8897 20.0201L27.1197 15.7801Z" fill="url(#paint3_linear_3108_1841)"/>
<path opacity="0.2" d="M26.9806 24.1299L12.4606 32.3799C12.1719 32.5957 11.8211 32.7124 11.4606 32.7124C11.1001 32.7124 10.7493 32.5957 10.4606 32.3799L10.3906 32.4499L10.4606 32.5199C10.7487 32.7373 11.0997 32.8549 11.4606 32.8549C11.8215 32.8549 12.1726 32.7373 12.4606 32.5199L27.0706 24.2199L26.9806 24.1299Z" fill="#010101"/>
<path opacity="0.12" d="M10.4304 32.3199C10.1045 31.9288 9.93993 31.4281 9.97038 30.9199V31.0699C9.93993 31.5781 10.1045 32.0788 10.4304 32.4699L10.5004 32.3999L10.4304 32.3199Z" fill="#010101"/>
<path opacity="0.12" d="M31.9805 21.3L26.9805 24.13L27.0705 24.22L31.9605 21.44C32.2391 21.3091 32.4782 21.1071 32.6538 20.8542C32.8294 20.6014 32.9352 20.3068 32.9605 20C32.9064 20.2768 32.79 20.5377 32.6202 20.7629C32.4505 20.9881 32.2317 21.1718 31.9805 21.3Z" fill="#010101"/>
<path opacity="0.25" d="M12.5107 7.61995L31.9807 18.7C32.2357 18.8258 32.4584 19.0084 32.6317 19.2338C32.8051 19.4591 32.9245 19.7213 32.9807 20C32.9554 19.6932 32.8496 19.3985 32.674 19.1457C32.4985 18.8929 32.2593 18.6908 31.9807 18.56L12.5107 7.49996C11.1107 6.70996 9.9707 7.36996 9.9707 8.96996V9.11995C9.9807 7.49995 11.1207 6.82995 12.5107 7.61995Z" fill="white"/>
<path d="M42.1091 14.2707H41.3691V12.2707H41.9791C42.2664 11.9663 42.4833 11.6026 42.6147 11.2051C42.746 10.8077 42.7885 10.3863 42.7391 9.9707V6.9707H46.7391V12.2307H47.4091V14.2307H46.6691V13.0007H42.1191L42.1091 14.2707ZM43.4891 9.96069C43.5358 10.7673 43.3371 11.5692 42.9191 12.2607H45.9191V7.73071H43.4591L43.4891 9.96069Z" fill="white" stroke="white" stroke-width="0.2" stroke-miterlimit="10"/>
<path d="M53.4098 12.2195C52.8252 12.8008 52.0343 13.1272 51.2098 13.1272C50.3854 13.1272 49.5944 12.8008 49.0098 12.2195C48.4416 11.618 48.125 10.8219 48.125 9.99448C48.125 9.16704 48.4416 8.37095 49.0098 7.76947C49.2979 7.47921 49.6407 7.24885 50.0183 7.09164C50.3959 6.93444 50.8008 6.85352 51.2098 6.85352C51.6188 6.85352 52.0238 6.93444 52.4013 7.09164C52.7789 7.24885 53.1216 7.47921 53.4098 7.76947C53.9803 8.3698 54.2984 9.16632 54.2984 9.99448C54.2984 10.8226 53.9803 11.6192 53.4098 12.2195ZM49.5798 11.7195C50.0127 12.1506 50.5988 12.3927 51.2098 12.3927C51.8208 12.3927 52.4069 12.1506 52.8398 11.7195C53.267 11.2485 53.5037 10.6354 53.5037 9.99948C53.5037 9.36359 53.267 8.75046 52.8398 8.27948C52.4069 7.84836 51.8208 7.60629 51.2098 7.60629C50.5988 7.60629 50.0127 7.84836 49.5798 8.27948C49.1526 8.75046 48.9159 9.36359 48.9159 9.99948C48.9159 10.6354 49.1526 11.2485 49.5798 11.7195Z" fill="white" stroke="white" stroke-width="0.2" stroke-miterlimit="10"/>
<path d="M58.1799 13.1302C57.3485 13.1302 56.5511 12.8 55.9631 12.212C55.3752 11.6241 55.0449 10.8267 55.0449 9.99523C55.0449 9.16378 55.3752 8.36639 55.9631 7.77847C56.5511 7.19054 57.3485 6.86022 58.1799 6.86022C58.5984 6.84986 59.0137 6.93446 59.3947 7.10766C59.7758 7.28086 60.1126 7.53816 60.3799 7.86022L59.8399 8.38024C59.6424 8.12949 59.3878 7.92964 59.0972 7.79742C58.8067 7.6652 58.4887 7.60445 58.1699 7.62023C57.863 7.61226 57.5576 7.66664 57.2723 7.78008C56.987 7.89353 56.7276 8.06367 56.5099 8.28024C56.0763 8.75403 55.8359 9.37301 55.8359 10.0153C55.8359 10.6575 56.0763 11.2764 56.5099 11.7502C56.7276 11.9668 56.987 12.1369 57.2723 12.2504C57.5576 12.3638 57.863 12.4182 58.1699 12.4102C58.5201 12.4018 58.8641 12.3157 59.1771 12.1584C59.49 12.001 59.7642 11.7763 59.9799 11.5002L60.5199 12.0402C60.2478 12.3704 59.9064 12.6366 59.5199 12.8202C59.1015 13.021 58.644 13.1269 58.1799 13.1302Z" fill="white" stroke="white" stroke-width="0.2" stroke-miterlimit="10"/>
<path d="M63.6805 13H62.9105V7.73999H61.2305V7H65.3505V7.73999H63.6805V13Z" fill="white" stroke="white" stroke-width="0.2" stroke-miterlimit="10"/>
<path d="M70.6506 7L68.3806 12.06C68.2886 12.3625 68.104 12.6284 67.8529 12.8204C67.6017 13.0123 67.2966 13.1207 66.9806 13.13C66.7739 13.1274 66.5699 13.0832 66.3806 13L66.5806 12.29C66.7022 12.3608 66.84 12.3987 66.9806 12.4C67.1276 12.4111 67.2744 12.3761 67.4006 12.3C67.5211 12.198 67.614 12.0673 67.6706 11.92L67.8906 11.44L65.8906 7.01001H66.8006L68.2806 10.45L69.7306 7.01001L70.6506 7Z" fill="white" stroke="white" stroke-width="0.2" stroke-miterlimit="10"/>
<path d="M71.5195 13V7H75.8595V13H75.0895V7.73999H72.2895V13H71.5195Z" fill="white" stroke="white" stroke-width="0.2" stroke-miterlimit="10"/>
<path d="M77.2305 13V7H77.9805V9.57001H80.9805V7H81.7505V13H80.9805V10.29H77.9805V13H77.2305Z" fill="white" stroke="white" stroke-width="0.2" stroke-miterlimit="10"/>
<path d="M88.0602 12.2195C87.4756 12.8008 86.6846 13.1272 85.8602 13.1272C85.0357 13.1272 84.2448 12.8008 83.6602 12.2195C83.0919 11.618 82.7754 10.8219 82.7754 9.99448C82.7754 9.16704 83.0919 8.37095 83.6602 7.76947C83.9483 7.47921 84.2911 7.24885 84.6686 7.09164C85.0462 6.93444 85.4512 6.85352 85.8602 6.85352C86.2692 6.85352 86.6741 6.93444 87.0517 7.09164C87.4293 7.24885 87.772 7.47921 88.0602 7.76947C88.6307 8.3698 88.9487 9.16632 88.9487 9.99448C88.9487 10.8226 88.6307 11.6192 88.0602 12.2195ZM84.2302 11.7195C84.6631 12.1506 85.2492 12.3927 85.8602 12.3927C86.4711 12.3927 87.0572 12.1506 87.4902 11.7195C87.9174 11.2485 88.1541 10.6354 88.1541 9.99948C88.1541 9.36359 87.9174 8.75046 87.4902 8.27948C87.0572 7.84836 86.4711 7.60629 85.8602 7.60629C85.2492 7.60629 84.6631 7.84836 84.2302 8.27948C83.8029 8.75046 83.5663 9.36359 83.5663 9.99948C83.5663 10.6354 83.8029 11.2485 84.2302 11.7195Z" fill="white" stroke="white" stroke-width="0.2" stroke-miterlimit="10"/>
<path d="M92.0898 13.0003V7.00031H94.2599C94.7104 6.9918 95.1471 7.15644 95.4799 7.46031C95.647 7.60532 95.7801 7.78529 95.87 7.98747C95.9599 8.18965 96.0042 8.40911 95.9999 8.63032C96.0046 8.89688 95.9278 9.15853 95.7798 9.38032C95.633 9.59575 95.4286 9.76554 95.1899 9.87031C95.4799 9.96633 95.7343 10.1476 95.9199 10.3903C96.11 10.6326 96.2122 10.9323 96.2098 11.2403C96.2149 11.4708 96.1692 11.6997 96.0759 11.9105C95.9825 12.1214 95.8439 12.3091 95.6699 12.4603C95.3217 12.7815 94.8635 12.9569 94.3898 12.9503L92.0898 13.0003ZM92.8599 9.57032H94.2599C94.3906 9.57578 94.521 9.55266 94.6418 9.50257C94.7627 9.45249 94.8713 9.37663 94.9598 9.28031C95.0427 9.19764 95.1084 9.09945 95.1533 8.99134C95.1981 8.88324 95.2212 8.76735 95.2212 8.65031C95.2212 8.53327 95.1981 8.41738 95.1533 8.30927C95.1084 8.20117 95.0427 8.10297 94.9598 8.0203C94.8763 7.92578 94.773 7.85082 94.6572 7.8007C94.5414 7.75058 94.416 7.72656 94.2899 7.73033H92.8599V9.57032ZM92.8599 12.2603H94.4099C94.5453 12.2649 94.68 12.2394 94.8045 12.1858C94.929 12.1322 95.0401 12.0518 95.1299 11.9503C95.3062 11.7675 95.4063 11.5243 95.4099 11.2703C95.4099 11.0051 95.3045 10.7507 95.1169 10.5632C94.9294 10.3757 94.6751 10.2703 94.4099 10.2703H92.8898L92.8599 12.2603Z" fill="white" stroke="white" stroke-width="0.2" stroke-miterlimit="10"/>
<defs>
<linearGradient id="paint0_linear_3108_1841" x1="21.8004" y1="8.71" x2="5.0204" y2="25.49" gradientUnits="userSpaceOnUse">
<stop stop-color="#4998D3"/>
<stop offset="0.01" stop-color="#4A99D3"/>
<stop offset="0.26" stop-color="#42BAEB"/>
<stop offset="0.51" stop-color="#41C7F2"/>
<stop offset="0.76" stop-color="#56C9E9"/>
<stop offset="1" stop-color="#5BCAE8"/>
</linearGradient>
<linearGradient id="paint1_linear_3108_1841" x1="33.8296" y1="20.0005" x2="9.63959" y2="20.0005" gradientUnits="userSpaceOnUse">
<stop stop-color="#FEE000"/>
<stop offset="0.41" stop-color="#FEBD11"/>
<stop offset="0.78" stop-color="#FAA51A"/>
<stop offset="1" stop-color="#F99C1C"/>
</linearGradient>
<linearGradient id="paint2_linear_3108_1841" x1="24.8297" y1="22.3" x2="2.06969" y2="45.05" gradientUnits="userSpaceOnUse">
<stop stop-color="#EF4049"/>
<stop offset="1" stop-color="#C31E63"/>
</linearGradient>
<linearGradient id="paint3_linear_3108_1841" x1="7.29969" y1="0.180074" x2="17.4597" y2="10.3401" gradientUnits="userSpaceOnUse">
<stop stop-color="#32A072"/>
<stop offset="0.07" stop-color="#2DA771"/>
<stop offset="0.48" stop-color="#4BBA71"/>
<stop offset="0.8" stop-color="#5EBD6B"/>
<stop offset="1" stop-color="#66BE69"/>
</linearGradient>
</defs>
</svg>
