<svg width="24" height="24" viewBox="0 0 24 24" fill="none" xmlns="http://www.w3.org/2000/svg">
<path d="M2.00012 12.0789C2.10119 12.396 2.34561 12.4574 2.64308 12.4567C8.4763 12.4539 14.3088 12.4546 20.142 12.4546C20.2237 12.4546 20.3054 12.4546 20.4338 12.4546C20.3499 12.5446 20.3011 12.601 20.2481 12.6538C19.0934 13.8059 17.9386 14.9579 16.7839 16.11C16.7473 16.1464 16.7086 16.1821 16.6742 16.2207C16.4886 16.4278 16.4828 16.6856 16.6591 16.867C16.8326 17.0463 17.095 17.0442 17.3064 16.8613C17.3508 16.8235 17.3917 16.7813 17.4333 16.7399C18.8747 15.3043 20.3155 13.8695 21.7562 12.4339C22.0795 12.1118 22.0809 11.8932 21.7634 11.5761C20.2997 10.1169 18.836 8.65849 17.3716 7.20004C17.1365 6.96649 16.8857 6.9365 16.6828 7.11505C16.5129 7.26504 16.4785 7.50859 16.6111 7.69357C16.667 7.77214 16.7366 7.84213 16.8054 7.9107C17.9558 9.05774 19.1063 10.2048 20.2574 11.3511C20.3069 11.4004 20.3535 11.4518 20.4388 11.5418C20.3126 11.5418 20.2323 11.5418 20.1521 11.5418C14.3124 11.5418 8.47343 11.5425 2.63376 11.5397C2.35135 11.5397 2.12341 11.6075 2.00084 11.8832C2.00012 11.9489 2.00012 12.0139 2.00012 12.0789Z" fill="black"/>
</svg>
