<svg width="120" height="120" viewBox="0 0 120 120" fill="none" xmlns="http://www.w3.org/2000/svg">
<path d="M71.5978 74.6197C52.6428 91.7114 25.0263 88.0014 10.3643 70.8342C-4.00965 54.0067 -3.3753 29.1071 11.9108 13.2098C27.2997 -2.79739 52.1661 -4.46881 69.4581 9.35555C75.6576 14.3115 80.1666 20.5166 82.9371 27.9677C85.7043 35.4152 86.3386 43.0653 84.8607 50.8595C83.3829 58.6538 79.8957 65.4904 74.4849 71.6201C77.4577 74.5202 80.3586 77.3723 83.3006 80.1865C83.5304 80.4062 84.0721 80.4748 84.4047 80.3787C87.1307 79.6134 89.4143 80.2174 91.434 82.2561C100.212 91.1211 109.035 99.9415 117.837 108.783C120.621 111.58 120.727 115.602 118.101 118.186C115.515 120.73 111.565 120.589 108.805 117.823C99.9342 108.927 91.0774 100.02 82.2068 91.128C80.3415 89.2575 79.7723 87.085 80.4169 84.5315C80.5232 84.1128 80.4923 83.447 80.2317 83.1827C77.4063 80.3135 74.5226 77.5027 71.5978 74.6197ZM42.8327 81.4907C64.1227 81.4907 81.401 64.1897 81.4079 42.8594C81.4147 21.5806 64.0816 4.19373 42.8327 4.16627C21.6832 4.13538 4.18203 21.5703 4.17517 42.6672C4.16832 64.1862 21.3986 81.4907 42.8327 81.4907Z" fill="#F3F3F3"/>
<path d="M30.8281 42.8697C27.4163 39.4651 24.1417 36.1943 20.8671 32.9236C19.0978 31.156 19.0944 30.298 20.8568 28.5339C23.5211 25.8638 26.1853 23.1902 28.8599 20.5269C30.1971 19.1953 31.2772 19.1884 32.6076 20.5098C35.6765 23.5677 38.7317 26.636 41.7937 29.6974C42.1229 30.0269 42.4692 30.3426 43.0144 30.8677C44.0979 29.6974 45.1129 28.5477 46.1895 27.4563C48.5349 25.0744 50.9043 22.7097 53.2805 20.3588C54.3675 19.2845 55.5882 19.2639 56.6683 20.3313C59.5657 23.1971 62.4426 26.08 65.3057 28.9767C66.5298 30.2122 66.499 31.2521 65.2268 32.5357C62.1751 35.6109 59.1131 38.6723 56.0408 41.7234C55.7082 42.0529 55.2761 42.2794 54.779 42.6329C55.3242 43.2095 55.6293 43.5458 55.9482 43.8684C59.0068 46.9333 62.0723 49.9946 65.1274 53.0629C66.5744 54.5181 66.5744 55.4413 65.1309 56.8931C62.4083 59.6285 59.6788 62.357 56.9494 65.082C55.4407 66.5887 54.5218 66.599 53.0302 65.1095C49.9956 62.0824 46.9611 59.0519 43.9471 56.0008C43.6213 55.6713 43.4259 55.208 43.1241 54.7343C42.4726 55.3555 42.1297 55.6679 41.8006 55.9974C38.7385 59.0588 35.6834 62.1304 32.6145 65.185C31.2567 66.5372 30.2143 66.5338 28.8599 65.1884C26.0653 62.405 23.2742 59.6147 20.4968 56.8142C19.2349 55.5443 19.2418 54.4255 20.5105 53.1556C23.8983 49.7613 27.3031 46.3773 30.8281 42.8697Z" fill="#F3F3F3"/>
</svg>
