<svg width="24" height="24" viewBox="0 0 24 24" fill="none" xmlns="http://www.w3.org/2000/svg">
<path d="M3.89671 12.3294L7.76777 13.6332L9.2661 17.9816C9.36197 18.2602 9.73936 18.3631 9.98985 18.1783L12.1476 16.5909C12.3738 16.4245 12.696 16.4163 12.9324 16.5711L16.8243 19.121C17.0922 19.2968 17.4718 19.1643 17.539 18.8721L20.3901 6.49624C20.4634 6.17705 20.1159 5.91078 19.7791 6.02832L3.89218 11.559C3.50012 11.6955 3.50354 12.1964 3.89671 12.3294ZM9.02463 12.9391L16.5901 8.73418C16.7261 8.65883 16.866 8.82474 16.7492 8.92247L10.5055 14.16C10.286 14.3444 10.1445 14.5911 10.1044 14.8589L9.89168 16.2813C9.86351 16.4712 9.56789 16.4901 9.50981 16.3063L8.69182 13.7125C8.59813 13.4166 8.73466 13.1006 9.02463 12.9391Z" fill="white"/>
</svg>
