<svg width="9" height="8" viewBox="0 0 9 8" fill="none" xmlns="http://www.w3.org/2000/svg">
<path d="M3.52532 4.91026C3.64319 4.70028 3.75171 4.49165 3.87359 4.2914C4.39373 3.43611 5.05339 2.70038 5.79483 2.03726C6.66912 1.25565 7.63161 0.602517 8.66065 0.0478899C8.71144 0.0206308 8.7812 -0.0112161 8.82744 0.00389785C8.88891 0.0241397 8.95547 0.0789275 8.98407 0.136954C9.02416 0.218192 8.98407 0.29754 8.9143 0.360155C8.69246 0.559874 8.46473 0.753657 8.25385 0.964982C6.43524 2.78918 5.12929 4.92591 4.4095 7.41809C4.37208 7.54737 4.33733 7.67745 4.30606 7.80835C4.28414 7.90066 4.24298 7.97137 4.14569 7.99458C4.0516 8.01671 3.98719 7.96813 3.92758 7.90281C3.157 7.06021 2.38589 6.21815 1.61478 5.37582C1.11362 4.82821 0.612461 4.28087 0.111303 3.73326C0.0931281 3.71356 0.0746855 3.69386 0.0570448 3.67388C-0.00255957 3.60695 -0.0161909 3.5303 0.0196252 3.44906C0.0543721 3.37026 0.121193 3.33355 0.204319 3.33328C0.825754 3.33247 1.44719 3.3295 2.06862 3.3376C2.13331 3.33841 2.21269 3.39266 2.2592 3.44556C2.65585 3.89735 3.04635 4.35482 3.43872 4.8104C3.46706 4.84386 3.49565 4.87625 3.52532 4.91026Z" fill="black"/>
</svg>
