<svg width="30" height="30" viewBox="0 0 30 30" fill="none" xmlns="http://www.w3.org/2000/svg">
<path d="M4.12089 12.1902C4.11587 12.4733 3.91911 12.6422 3.56374 12.6442C2.54782 12.6481 1.53191 12.6559 0.516995 12.6354C0.418262 12.6337 0.320502 12.5901 0.222793 12.5395C0.0884205 12.4698 0 12.3315 0 12.1834C0 12.0218 0.106037 11.8742 0.261142 11.8162C0.370577 11.7752 0.480115 11.7403 0.590276 11.7381C1.57607 11.7206 2.56288 11.7294 3.54969 11.7313C3.92614 11.7323 4.12591 11.8963 4.12089 12.1902Z" fill="#E44B55"/>
<path d="M22.5901 10.8927C23.2024 10.8927 23.7776 10.8927 24.3529 10.8927C24.901 10.8927 25.4491 10.8907 25.9962 10.8936C26.4871 10.8966 26.8645 11.1016 27.1055 11.5204C27.9547 12.9995 28.802 14.4806 29.6453 15.9636C29.8872 16.3883 29.9996 16.8481 29.9996 17.3343C29.9986 18.1447 30.0016 18.955 29.9986 19.7653C29.9966 20.3511 29.6754 20.687 29.069 20.6508C28.5832 20.6215 28.3161 20.7045 28.1254 21.2249C27.773 22.1827 26.719 22.7645 25.7041 22.7108C24.6068 22.6532 23.6943 21.9767 23.358 20.9711C23.3279 20.8812 23.3018 20.7895 23.2677 20.6811C20.4458 20.6811 17.6219 20.6811 14.779 20.6811C14.7559 20.7504 14.7278 20.8295 14.7027 20.9086C14.3634 21.9864 13.3685 22.7118 12.2261 22.7138C11.1098 22.7157 10.0999 21.9874 9.77668 20.9193C9.71444 20.7123 9.63112 20.6557 9.41931 20.6567C8.21567 20.6665 7.01203 20.6616 5.8094 20.6606C5.31148 20.6606 5.16491 20.5161 5.1639 20.0299C5.1629 19.078 5.1639 18.1261 5.1639 17.1322C5.03842 17.1322 4.93503 17.1322 4.83062 17.1322C3.74444 17.1322 2.65825 17.1303 1.57206 17.1322C1.31306 17.1322 1.13438 17.0219 1.07214 16.7778C1.01693 16.5572 1.11229 16.3756 1.31808 16.2799C1.4275 16.2292 1.56403 16.2213 1.68851 16.2194C2.16735 16.2126 2.64721 16.2165 3.12706 16.2165C4.49633 16.2165 5.86661 16.2165 7.23589 16.2174C7.34331 16.2174 7.45273 16.2145 7.55713 16.234C7.81914 16.2819 7.97675 16.4801 7.94563 16.7232C7.9135 16.975 7.75991 17.1225 7.4969 17.1274C7.04817 17.1352 6.59944 17.1293 6.12561 17.1293C6.12561 18.0011 6.12561 18.8525 6.12561 19.7214C6.16276 19.7282 6.20894 19.7429 6.25411 19.7429C7.33026 19.7448 8.4064 19.7409 9.48255 19.7478C9.65421 19.7487 9.70842 19.6872 9.75561 19.532C10.0869 18.4219 11.0737 17.6936 12.2271 17.6907C13.3816 17.6877 14.3674 18.4112 14.7077 19.5212C14.7509 19.6638 14.784 19.7497 14.9697 19.7487C17.1421 19.7419 19.3134 19.7438 21.4858 19.7429C21.523 19.7429 21.5601 19.7321 21.6223 19.7224C21.6223 15.7478 21.6223 11.7772 21.6223 7.78998C16.4524 7.78998 11.2925 7.78998 6.11658 7.78998C6.11658 8.25665 6.11658 8.71063 6.11658 9.19781C6.23203 9.19781 6.33643 9.19781 6.44183 9.19781C7.22485 9.19781 8.00686 9.19488 8.78988 9.19976C9.12617 9.20269 9.32294 9.37061 9.33197 9.63812C9.34101 9.91734 9.13722 10.1087 8.79189 10.1097C6.93373 10.1146 5.07456 10.1136 3.2164 10.1097C2.86906 10.1087 2.66226 9.92222 2.66728 9.64593C2.6723 9.36964 2.87609 9.20269 3.23146 9.19878C3.75949 9.1939 4.28853 9.19683 4.81657 9.19683C4.92198 9.19683 5.02738 9.19683 5.1619 9.19683C5.1619 8.70868 5.15989 8.25274 5.1619 7.79779C5.16491 7.18174 5.48615 6.85858 6.11658 6.85858C11.2825 6.85663 16.4484 6.85663 21.6153 6.85858C22.2598 6.85858 22.585 7.18076 22.5871 7.81634C22.5931 8.82779 22.5901 9.83729 22.5901 10.8927ZM22.6132 19.7194C23.2085 19.7975 23.2085 19.7975 23.4002 19.3094C23.7776 18.3438 24.7223 17.7014 25.7763 17.6917C26.8485 17.6819 27.8072 18.3126 28.1987 19.285C28.3904 19.7614 28.3904 19.7614 28.9305 19.7438C28.9666 19.7429 29.0028 19.7302 29.06 19.7194C29.06 18.9589 29.053 18.2081 29.063 17.4564C29.069 17.0239 28.9586 16.6304 28.7428 16.2565C27.9487 14.8779 27.1557 13.4984 26.3737 12.114C26.2502 11.8944 26.1066 11.8006 25.8446 11.8045C24.8668 11.8182 23.8881 11.8094 22.9093 11.8104C22.8139 11.8104 22.7196 11.8182 22.6122 11.8231C22.6132 14.462 22.6132 17.0815 22.6132 19.7194ZM10.6179 20.1929C10.6209 21.097 11.3307 21.798 12.2422 21.797C13.1427 21.797 13.8604 21.0765 13.8564 20.1773C13.8524 19.3045 13.1256 18.6035 12.2261 18.6055C11.3247 18.6084 10.6149 19.3084 10.6179 20.1929ZM27.4227 20.2066C27.4217 19.3035 26.711 18.6045 25.7974 18.6055C24.899 18.6074 24.1832 19.3104 24.1852 20.191C24.1862 21.0911 24.9 21.7951 25.8115 21.796C26.7009 21.799 27.4237 21.0853 27.4227 20.2066Z" fill="#E44B55"/>
<path d="M6.10252 14.1428C6.78214 14.1428 7.41658 14.1428 8.05103 14.1428C9.41027 14.1428 10.7695 14.1418 12.1297 14.1438C12.4982 14.1438 12.705 14.3175 12.6979 14.6104C12.6909 14.8906 12.4891 15.0566 12.1348 15.0566C9.42533 15.0586 6.71689 15.0586 4.00745 15.0566C3.65609 15.0566 3.45732 14.8828 3.45833 14.5977C3.45833 14.3117 3.65709 14.1467 4.00945 14.1438C4.37988 14.1408 4.75031 14.1428 5.1639 14.1428C5.1639 14.0266 5.1639 13.926 5.1639 13.8255C5.1639 13.0913 5.16189 12.3581 5.16491 11.6239C5.16591 11.2832 5.33858 11.0762 5.61866 11.0674C5.90576 11.0586 6.10152 11.2793 6.10252 11.6269C6.10453 12.4548 6.10252 13.2827 6.10252 14.1428Z" fill="#E44B55"/>
</svg>
